<svg xmlns="http://www.w3.org/2000/svg" width="180" height="80" viewBox="0 0 180 80">
    <g fill="none" fill-rule="evenodd">
        <g>
            <g>
                <path d="M0 0H180V80H0z" transform="translate(-725 -5307) translate(725 5307)"/>
                <g fill="#FFF" fill-rule="nonzero">
                    <path d="M61.96 23.425C56.142 27.715 47.677 30 40.376 30c-10.229 0-19.4-3.762-26.383-10.02-.53-.492-.07-1.16.6-.774 7.512 4.36 16.789 6.962 26.382 6.962 6.455 0 13.58-1.336 20.14-4.114.988-.387 1.8.668.847 1.371z" transform="translate(-725 -5307) translate(725 5307) translate(40 30)"/>
                    <path d="M64.242 20.835c-.747-.97-4.984-.467-6.87-.215-.57.071-.677-.431-.143-.79 3.382-2.406 8.9-1.688 9.541-.898.64.79-.178 6.39-3.347 9.047-.498.395-.96.18-.747-.359.712-1.795 2.314-5.78 1.566-6.785zM57.79 3.371V1.04c0-.359.245-.574.56-.574h10.176c.316 0 .597.251.597.574v1.972c0 .323-.28.753-.772 1.47l-5.263 7.675c1.965-.036 4.035.251 5.79 1.255.385.215.49.574.526.897v2.474c0 .359-.351.753-.737.538-3.123-1.685-7.299-1.865-10.737.036-.351.18-.737-.18-.737-.538v-2.367c0-.358 0-1.004.386-1.578l6.105-8.93h-5.298c-.316 0-.597-.25-.597-.573zM20.702 17.823h-3.088c-.28-.036-.526-.25-.561-.538V1.075c0-.322.28-.573.596-.573h2.877c.316 0 .527.251.562.538v2.116h.07c.737-2.044 2.175-3.013 4.07-3.013 1.93 0 3.158.969 4 3.013.737-2.044 2.456-3.013 4.28-3.013 1.299 0 2.703.538 3.58 1.794.982 1.362.772 3.335.772 5.092v10.256c0 .323-.281.574-.597.574h-3.052c-.316-.036-.562-.287-.562-.574V8.68c0-.682.07-2.403-.07-3.049-.246-1.076-.912-1.398-1.825-1.398-.736 0-1.543.502-1.86 1.327-.315.824-.28 2.187-.28 3.12v8.606c0 .323-.28.574-.596.574H25.93c-.316-.036-.562-.287-.562-.574V8.68c0-1.794.281-4.483-1.894-4.483-2.21 0-2.14 2.582-2.14 4.483v8.606c-.036.287-.281.538-.632.538zM77.895.143c4.596 0 7.087 4.017 7.087 9.145 0 4.949-2.736 8.894-7.087 8.894-4.491 0-6.948-4.017-6.948-9.037-.035-5.057 2.457-9.002 6.948-9.002zm0 3.336c-2.281 0-2.421 3.191-2.421 5.164v.296c.002 2.07.08 5.908 2.386 5.908 2.386 0 2.526-3.407 2.526-5.487 0-1.363-.07-3.013-.456-4.304-.351-1.147-1.053-1.577-2.035-1.577zM90.912 17.823h-3.087c-.316-.036-.562-.287-.562-.574V1.004c.035-.287.28-.538.597-.538h2.877c.28 0 .491.215.561.466v2.475h.07c.878-2.224 2.07-3.264 4.21-3.264 1.37 0 2.738.503 3.615 1.901.807 1.291.807 3.479.807 5.057v10.22c-.035.287-.28.502-.596.502h-3.088c-.28-.036-.527-.25-.562-.502V8.5c0-1.793.21-4.375-1.93-4.375-.736 0-1.438.502-1.789 1.291-.421 1.004-.491 1.972-.491 3.084v8.75c-.035.323-.316.574-.632.574zM48.035 0c1.509 0 3.474.394 4.667 1.578 1.509 1.434 1.368 3.37 1.368 5.45v4.914c0 1.47.597 2.116 1.158 2.94.21.287.246.646 0 .825-.667.538-1.79 1.542-2.421 2.08-.21.18-.491.216-.737.072-1.017-.86-1.228-1.291-1.79-2.116-1.684 1.757-2.912 2.295-5.087 2.295-2.597 0-4.632-1.65-4.632-4.913 0-2.582 1.369-4.303 3.299-5.164 1.684-.753 4.035-.896 5.824-1.111v-.395c0-.753.07-1.65-.386-2.295-.386-.574-1.087-.825-1.72-.825-1.192 0-2.245.61-2.49 1.9-.07.288-.246.575-.527.575l-2.982-.323c-.246-.072-.526-.251-.456-.646C41.825 1.111 45.088 0 48.035 0zm1.65 9.396c-2.246 0-4.597.502-4.597 3.191 0 1.363.701 2.296 1.894 2.296.878 0 1.65-.538 2.14-1.435.597-1.112.562-2.152.562-3.37zM7.474 0c1.508 0 3.473.394 4.666 1.578 1.51 1.434 1.369 3.37 1.369 5.45v4.914c0 1.47.596 2.116 1.158 2.94.21.287.245.646 0 .825-.667.538-1.79 1.542-2.421 2.08-.21.18-.492.216-.737.072-1.018-.86-1.228-1.291-1.79-2.116-1.684 1.757-2.912 2.295-5.087 2.295-2.597 0-4.632-1.65-4.632-4.913 0-2.582 1.368-4.303 3.298-5.164 1.684-.753 4.035-.896 5.825-1.111v-.395c0-.753.07-1.65-.386-2.295-.386-.574-1.088-.825-1.72-.825-1.192 0-2.245.61-2.49 1.9-.07.288-.246.575-.527.575l-2.982-.323C.772 5.415.49 5.236.56 4.84 1.263 1.111 4.526 0 7.474 0zm1.684 9.396c-2.246 0-4.597.502-4.597 3.191 0 1.363.702 2.296 1.895 2.296.877 0 1.65-.538 2.14-1.435.597-1.112.562-2.152.562-3.37z" transform="translate(-725 -5307) translate(725 5307) translate(40 30)"/>
                </g>
            </g>
        </g>
    </g>
</svg>
