<svg xmlns="http://www.w3.org/2000/svg" width="180" height="80" viewBox="0 0 180 80">
    <defs>
        <filter id="heuwr126sa">
            <feColorMatrix in="SourceGraphic" values="0 0 0 0 1.000000 0 0 0 0 1.000000 0 0 0 0 1.000000 0 0 0 1.000000 0"/>
        </filter>
    </defs>
    <g fill="none" fill-rule="evenodd">
        <g>
            <g>
                <path d="M0 0H180V80H0z" transform="translate(-345 -5307) translate(345 5307)"/>
                <g filter="url(#heuwr126sa)" transform="translate(-345 -5307) translate(345 5307)">
                    <g>
                        <g fill="#FFF" fill-rule="nonzero">
                            <path d="M35.25 21.385l.263 4.147h.065c.137-.423.287-.866.498-1.28l1.43-2.867h2.322l.35 4.147h.068c.12-.406.257-.83.443-1.226l1.394-2.92h3.152l-4.262 6.948h-2.642l-.233-3.779h-.1c-.1.36-.19.71-.355 1.051l-1.358 2.728h-2.577l-1.6-6.949h3.142z" transform="translate(38 26) translate(.324 .173)"/>
                            <path d="M45.015 21.385L47.934 21.385 47.49 23.726 49.347 23.726 49.792 21.385 52.711 21.385 51.391 28.334 48.472 28.334 48.93 25.92 47.071 25.92 46.613 28.334 43.694 28.334z" transform="translate(38 26) translate(.324 .173)"/>
                            <path d="M61.26 24.878c-.423 2.23-2.746 3.566-5.287 3.566-2.544 0-4.359-1.336-3.935-3.566.416-2.184 2.764-3.604 5.296-3.604 2.532 0 4.34 1.42 3.927 3.604zm-6.176.036c-.152.793.387 1.337 1.305 1.337.918 0 1.662-.544 1.814-1.337.14-.737-.34-1.354-1.302-1.354-.964 0-1.678.617-1.817 1.354zm6.84-3.529h3.03l-.896 4.719h2.544l-.424 2.23h-5.574l1.32-6.949zm11.846 4.46l.135.103c.475.35 1.073.636 1.77.636.299 0 .793-.103.853-.415.06-.313-.333-.34-.6-.387l-.591-.093c-1.15-.175-2.034-.756-1.829-1.842.315-1.65 2.291-2.571 4.105-2.571.95 0 1.79.194 2.527.608l-1.156 1.779c-.464-.295-1.006-.526-1.659-.526-.265 0-.668.082-.721.368-.05.257.319.295.543.34l.662.13c1.236.24 2.057.81 1.834 1.99-.316 1.66-2.286 2.48-4.088 2.48-1.05 0-2.221-.24-3.086-.637l1.3-1.963z" transform="translate(38 26) translate(.324 .173)"/>
                            <path d="M84.18 25.818l-.122-1.226c-.032-.295-.03-.599-.028-.894h-.111l-.955 2.12h1.215zm-2.638 2.516h-3.207l4.218-6.949h3.35l1.654 6.949H84.35l-.111-.866h-2.288l-.41.866z" transform="translate(38 26) translate(.324 .173)"/>
                            <path d="M88.625 21.385h3.03l-.897 4.719h2.544l-.425 2.23h-5.572l1.32-6.949zm6.135 0h5.608l-.362 1.9h-2.555l-.126.663h2.333l-.343 1.806h-2.333l-.129.682h2.644l-.362 1.898H93.44l1.32-6.949z" transform="translate(38 26) translate(.324 .173)"/>
                            <g>
                                <path d="M53.65 8.897l3.826-.143-3.21 10.58h6.864l3.21-10.58 3.739.143 1.523-5.023H55.173l-1.522 5.023zm-14.212 2.747c-.96 4.96-6.219 7.935-11.98 7.935-5.762 0-9.871-2.973-8.911-7.935.94-4.86 6.26-8.016 11.996-8.016 5.736 0 9.835 3.157 8.895 8.016zm-13.994.082c-.34 1.764.879 2.974 2.957 2.974 2.079 0 3.766-1.21 4.107-2.974.317-1.64-.77-3.013-2.95-3.013s-3.797 1.374-4.114 3.013z" transform="translate(38 26) translate(.324 .173)"/>
                                <path d="M37.305 18.164c1.958.88 4.61 1.415 6.991 1.415 4.083 0 8.544-1.825 9.258-5.515.507-2.625-1.35-3.896-4.154-4.429l-1.497-.287c-.507-.103-1.343-.184-1.232-.76.123-.635 1.036-.82 1.637-.82 1.477 0 2.707.513 3.757 1.169l2.619-3.957c-1.677-.922-3.572-1.352-5.726-1.352-4.108 0-8.588 2.05-9.297 5.72-.469 2.42 1.536 3.711 4.14 4.1l1.339.205c.607.104 1.497.164 1.362.86-.135.698-1.256.923-1.933.923-1.579 0-2.933-.635-4.01-1.414l-.306-.226-2.948 4.368zm45.658-13.9c-1.373-.41-2.933-.636-4.487-.636-5.536 0-10.567 3.609-11.44 8.12-.853 4.407 2.694 7.831 8.08 7.831 1.227 0 3.817-.184 5.004-.615l1.32-5.781c-1.275.881-2.633 1.435-4.211 1.435-2.054 0-3.58-1.312-3.25-3.013.326-1.682 2.263-3.014 4.316-3.014 1.553 0 2.792.718 3.733 1.56l.935-5.887zm10.99-.636c-5.735 0-11.055 3.156-11.996 8.016-.959 4.96 3.15 7.935 8.913 7.935 5.76 0 11.02-2.973 11.98-7.935.938-4.859-3.16-8.016-8.896-8.016zm-.983 5.084c2.18 0 3.268 1.373 2.949 3.013-.34 1.763-2.028 2.973-4.107 2.973-2.08 0-3.298-1.209-2.957-2.973.317-1.638 1.936-3.013 4.115-3.013zM20.316.794C18.602.298 16.658.026 14.72.026 7.816.026 1.54 4.387.453 9.839c-1.063 5.329 3.36 9.466 10.076 9.466 1.532 0 4.764-.223 6.242-.742l1.644-6.99c-1.587 1.067-3.283 1.736-5.251 1.736-2.562 0-4.464-1.586-4.053-3.645.406-2.031 2.82-3.643 5.381-3.643 1.937 0 3.482.868 4.654 1.884l1.17-7.11z" transform="translate(38 26) translate(.324 .173)"/>
                                <path d="M98.625 18.582c.103-.54.705-.975 1.36-.975.649 0 1.09.435.988.975-.105.543-.71.978-1.36.978-.654 0-1.09-.436-.988-.978zm2.04 0c.083-.434-.228-.72-.73-.72-.51 0-.922.286-1.003.72-.082.435.22.723.73.723.502 0 .922-.288 1.004-.723zm-.417.51h-.303l-.191-.433h-.198l-.082.433h-.258l.194-1.021h.595c.263 0 .404.072.36.312-.035.175-.172.266-.33.278l.213.431zm-.375-.628c.128 0 .24 0 .26-.109.018-.09-.094-.09-.223-.09h-.279l-.036.199h.278z" transform="translate(38 26) translate(.324 .173)"/>
                            </g>
                            <path d="M.933 28.345h32.125l-.002-.011h-.027l-.405-1.767H.933v1.778zm0-2.526H32.45l-.41-1.777H.933v1.777zm0-2.536h30.923l-.138-.648-.285-1.236H.933v1.884zm67.128-1.898h5.607l-.361 1.9h-2.554l-.127.663h2.333l-.342 1.806h-2.333l-.13.682h2.643l-.36 1.898H66.74l1.32-6.949z" transform="translate(38 26) translate(.324 .173)"/>
                        </g>
                    </g>
                </g>
            </g>
        </g>
    </g>
</svg>
