<svg xmlns="http://www.w3.org/2000/svg" xmlns:xlink="http://www.w3.org/1999/xlink" width="140" height="24" viewBox="0 0 140 24">
    <defs>
        <path id="coo5pgz8oa" d="M31.411 0c3.38 0 6.115.903 8.204 2.709 1.95 1.694 2.94 3.818 2.974 6.372V23.762H30.115V0h1.297zm-3.878 0v23.762H15.057V0h12.476zM12.476 0v23.762H0V0h12.476z"/>
    </defs>
    <g fill="none" fill-rule="evenodd">
        <g>
            <g>
                <g transform="translate(-150 -4626) translate(150 4626)">
                    <mask id="0lnpmi2r8b" fill="#fff">
                        <use xlink:href="#coo5pgz8oa"/>
                    </mask>
                    <path fill="#0179FE" d="M-1.164 -1.188L43.753 -1.188 43.753 24.95 -1.164 24.95z" mask="url(#0lnpmi2r8b)"/>
                </g>
                <path fill="#000" d="M75.298 23.529c-.61-.314-1.08-.75-1.41-1.305-.329-.555-.494-1.176-.494-1.863 0-1.096.38-1.954 1.14-2.575.76-.621 1.836-.94 3.227-.954h3.356v-.307c0-.687-.222-1.22-.667-1.6-.444-.38-1.09-.57-1.936-.57-1.09 0-2.23.366-3.42 1.096l-1.012-1.973c.904-.51 1.725-.88 2.464-1.106.738-.227 1.602-.34 2.592-.34 1.492 0 2.65.365 3.474 1.096.825.73 1.245 1.753 1.259 3.068l.021 7.672H81.14v-1.424c-.402.511-.918.898-1.55 1.161-.63.263-1.355.395-2.172.395-.803 0-1.51-.157-2.119-.471zm1.27-4.45c-.352.226-.528.596-.528 1.107 0 .497.183.891.549 1.184.365.292.864.438 1.495.438.803 0 1.492-.194 2.065-.58.574-.388.896-.867.968-1.437V18.74h-2.904c-.746 0-1.294.113-1.646.34zm37.41 4.154c-.896-.497-1.588-1.195-2.076-2.094-.488-.898-.731-1.932-.731-3.101 0-1.17.247-2.207.742-3.113.495-.906 1.187-1.611 2.076-2.115.89-.504 1.9-.756 3.033-.756 1.836 0 3.216.533 4.141 1.6.925 1.067 1.388 2.564 1.388 4.493 0 .38-.007.665-.022.855h-8.497c.186.833.57 1.487 1.15 1.962.582.475 1.295.712 2.141.712.588 0 1.151-.113 1.69-.34.537-.226 1.006-.55 1.408-.975l1.506 1.6c-.574.643-1.273 1.14-2.097 1.49-.825.352-1.74.527-2.743.527-1.176 0-2.213-.248-3.109-.745zm1.011-8.21c-.552.505-.893 1.195-1.022 2.072h6.024c-.029-.862-.309-1.549-.84-2.06-.53-.512-1.233-.767-2.107-.767-.818 0-1.503.252-2.055.756zm-13.747 8.21c-.896-.497-1.588-1.195-2.075-2.094-.488-.898-.732-1.932-.732-3.101 0-1.17.247-2.207.742-3.113.495-.906 1.187-1.611 2.076-2.115.89-.504 1.9-.756 3.034-.756 1.835 0 3.216.533 4.14 1.6.926 1.067 1.388 2.564 1.388 4.493 0 .38-.007.665-.021.855h-8.498c.187.833.57 1.487 1.151 1.962.58.475 1.294.712 2.14.712.589 0 1.152-.113 1.69-.34.537-.226 1.007-.55 1.409-.975l1.505 1.6c-.573.643-1.273 1.14-2.097 1.49-.825.352-1.739.527-2.743.527-1.176 0-2.212-.248-3.109-.745zm1.012-8.21c-.553.505-.893 1.195-1.022 2.072h6.023c-.028-.862-.308-1.549-.839-2.06-.53-.512-1.233-.767-2.108-.767-.817 0-1.502.252-2.054.756zM67.9 23.9v-6.51c0-.836-.226-1.492-.678-1.968-.453-.477-1.067-.715-1.842-.715-.89.03-1.598.36-2.122.99-.524.63-.786 1.43-.786 2.397V23.9H59.65v-6.51c0-.836-.222-1.492-.668-1.968-.445-.477-1.055-.715-1.83-.715-.905.03-1.62.36-2.144.99s-.786 1.43-.786 2.397V23.9h-2.8V12.134h2.8v2.177c.761-1.495 2.111-2.258 4.05-2.287 1.005 0 1.849.245 2.53.736.683.492 1.16 1.184 1.433 2.079.732-1.848 2.161-2.786 4.287-2.815 1.306 0 2.333.407 3.08 1.22.747.814 1.12 1.918 1.12 3.31V23.9h-2.822zm65.428-.032V17.38c0-.818-.23-1.465-.689-1.94-.458-.475-1.082-.712-1.871-.712-.932.015-1.668.336-2.205.964-.538.629-.807 1.432-.807 2.411v5.765h-2.797V12.141h2.797v2.192c.789-1.505 2.166-2.272 4.13-2.301 1.32 0 2.36.405 3.12 1.216.76.811 1.14 1.91 1.14 3.3v7.32h-2.818zm-38.508 0L91.7 18.74l-1.764 1.885v3.244h-2.796V7.604h2.796v9.425l4.733-4.866h3.227l-4.26 4.516 4.518 7.19h-3.334zM137.088 11.5c-.292-.177-.522-.415-.69-.715-.167-.3-.251-.625-.251-.976 0-.35.085-.676.254-.978.17-.302.4-.542.693-.721.292-.179.615-.268.97-.268.35 0 .67.087.963.262.292.175.523.413.692.713.17.3.254.627.254.98 0 .35-.084.677-.254.98-.17.301-.401.541-.695.72-.294.18-.618.269-.972.269-.35 0-.672-.089-.964-.266zm.212-3.018c-.23.138-.412.325-.545.56-.134.235-.2.49-.2.767s.065.532.197.765c.132.233.312.417.54.554.227.137.48.205.76.205.278 0 .534-.07.766-.208.231-.138.414-.325.548-.56.134-.234.2-.49.2-.767s-.065-.532-.197-.765c-.132-.233-.313-.417-.543-.554-.23-.136-.484-.205-.763-.205s-.533.07-.763.208zm1.153 2.199l-.294-.543h-.418v.543h-.407V8.805h.78c.24 0 .427.057.56.17.131.114.197.273.197.477 0 .146-.03.27-.09.372-.06.102-.147.18-.26.233l.401.624h-.469zm-.712-.877h.373c.117 0 .207-.03.271-.087.064-.057.096-.14.096-.248 0-.108-.032-.19-.096-.245-.064-.056-.154-.084-.271-.084h-.373v.664z" transform="translate(-150 -4626) translate(150 4626)"/>
            </g>
        </g>
    </g>
</svg>
