<svg xmlns="http://www.w3.org/2000/svg" xmlns:xlink="http://www.w3.org/1999/xlink" width="180" height="80" viewBox="0 0 180 80">
    <defs>
        <path id="km65rjqv6b" d="M10.35 12.207L9.545 14.5h-.067c-.134-.517-.38-1.304-.784-2.248L4.369 1.349H.134v17.377h2.801V8.003c0-.674 0-1.439-.022-2.383-.023-.472-.068-.832-.09-1.101h.067c.135.674.291 1.169.403 1.483l5.198 12.68h1.972L15.616 5.89c.112-.292.224-.877.336-1.371h.067c-.067 1.281-.112 2.428-.134 3.124V18.66h2.98V1.304h-4.078l-4.436 10.903zm11.338-6.002H24.6v12.454h-2.912V6.205zm1.478-5.26c-.493 0-.896.179-1.232.494-.336.314-.515.72-.515 1.214 0 .472.179.876.515 1.191.336.315.74.472 1.232.472.493 0 .919-.18 1.233-.472.336-.315.515-.72.515-1.191 0-.472-.18-.877-.515-1.214-.292-.315-.717-.495-1.233-.495zM34.93 6.091c-.538-.112-1.098-.18-1.636-.18-1.322 0-2.532.293-3.54.877-1.008.585-1.815 1.394-2.33 2.406-.538 1.034-.806 2.225-.806 3.596 0 1.192.268 2.249.784 3.215.515.944 1.232 1.709 2.195 2.226.919.517 1.994.787 3.204.787 1.39 0 2.577-.293 3.518-.832l.022-.023v-2.697l-.112.09c-.426.314-.918.584-1.411.741-.516.18-.986.27-1.39.27-1.164 0-2.083-.337-2.733-1.079-.672-.72-1.008-1.708-1.008-2.945 0-1.281.336-2.293 1.03-3.035.695-.742 1.614-1.124 2.734-1.124.941 0 1.904.315 2.778.944l.112.09V6.564l-.022-.022c-.381-.158-.807-.337-1.39-.45zm9.611-.09c-.717 0-1.389.225-1.971.697-.493.405-.83.99-1.12 1.686h-.023v-2.18h-2.913v12.454h2.913v-6.362c0-1.08.224-1.978.717-2.63.493-.675 1.12-1.012 1.882-1.012.269 0 .538.067.874.112.313.09.537.18.694.293l.112.09V6.227l-.067-.022c-.202-.135-.605-.203-1.098-.203zm7.931-.067c-2.038 0-3.674.607-4.817 1.798-1.165 1.192-1.725 2.833-1.725 4.901 0 1.933.583 3.507 1.703 4.654 1.12 1.124 2.644 1.708 4.548 1.708 1.994 0 3.585-.607 4.728-1.82 1.165-1.215 1.725-2.833 1.725-4.834 0-1.978-.538-3.552-1.636-4.699-1.053-1.146-2.599-1.708-4.526-1.708zm2.33 9.577c-.537.697-1.389 1.034-2.442 1.034-1.053 0-1.904-.337-2.509-1.08-.605-.696-.896-1.708-.896-2.99 0-1.326.314-2.337.896-3.057.605-.719 1.434-1.079 2.487-1.079 1.03 0 1.837.338 2.42 1.034.582.697.896 1.709.896 3.035-.045 1.35-.291 2.406-.852 3.103zm10.329-4.137c-.919-.382-1.501-.674-1.77-.922-.224-.224-.336-.539-.336-.944 0-.337.134-.674.47-.899.337-.225.717-.337 1.278-.337.492 0 1.008.09 1.5.225.494.135.942.337 1.3.607l.112.09V6.452l-.067-.023c-.336-.134-.784-.27-1.322-.382-.538-.09-1.03-.135-1.434-.135-1.389 0-2.532.338-3.428 1.08-.896.696-1.322 1.64-1.322 2.742 0 .585.09 1.102.292 1.529.201.427.493.832.896 1.169.403.315.986.674 1.792 1.011.672.293 1.188.517 1.501.697.314.18.516.382.672.54.112.18.18.404.18.697 0 .832-.628 1.236-1.905 1.236-.493 0-1.008-.09-1.613-.292-.605-.202-1.165-.495-1.635-.832l-.112-.09v2.855l.067.023c.425.202.94.337 1.568.494.627.113 1.188.203 1.68.203 1.502 0 2.734-.338 3.608-1.08.896-.719 1.366-1.64 1.366-2.832 0-.832-.224-1.574-.717-2.136-.65-.54-1.456-1.101-2.621-1.55zm11.023-5.44c-2.039 0-3.674.607-4.817 1.798-1.143 1.192-1.725 2.833-1.725 4.901 0 1.933.582 3.507 1.703 4.654 1.12 1.124 2.643 1.708 4.548 1.708 1.994 0 3.584-.607 4.727-1.82 1.165-1.215 1.725-2.833 1.725-4.834 0-1.978-.537-3.552-1.635-4.699-1.053-1.146-2.6-1.708-4.526-1.708zm2.308 9.577c-.538.697-1.39 1.034-2.442 1.034-1.076 0-1.905-.337-2.51-1.08-.605-.696-.896-1.708-.896-2.99 0-1.326.314-2.337.896-3.057.605-.719 1.434-1.079 2.487-1.079 1.008 0 1.837.338 2.42 1.034.582.697.896 1.709.896 3.035 0 1.35-.291 2.406-.851 3.103z"/>
        <path id="8xap3mqg2c" d="M97.885 8.61V6.205H94.95V2.518l-.09.022-2.777.832-.068.023v2.81h-4.39V4.63c0-.72.178-1.281.492-1.641.314-.36.784-.54 1.367-.54.403 0 .829.09 1.3.293l.111.067V.27l-.067-.023c-.403-.135-.941-.225-1.636-.225-.873 0-1.635.203-2.33.54-.694.382-1.21.9-1.59 1.596-.381.675-.583 1.439-.583 2.316v1.73H82.65v2.384h2.04v10.07h2.934V8.61h4.391v6.407c0 2.63 1.233 3.957 3.697 3.957.403 0 .83-.068 1.232-.135.426-.09.74-.203.919-.292l.022-.023v-2.405l-.112.09c-.179.112-.336.202-.605.27-.224.067-.425.09-.582.09-.583 0-.986-.136-1.277-.473-.269-.315-.403-.832-.403-1.596V8.61h2.98z"/>
        <path id="lppewlcc3d" d="M0 0L13.734 0 13.734 13.781 0 13.781z"/>
        <path id="jrhxdyqjbe" d="M15.168 0L28.902 0 28.902 13.781 15.168 13.781z"/>
        <path id="bzw5ka5tlf" d="M0 15.219L13.734 15.219 13.734 29 0 29z"/>
        <path id="us9e6fy6og" d="M15.168 15.219L28.902 15.219 28.902 29 15.168 29z"/>
        <filter id="xqaz2rs5ba">
            <feColorMatrix in="SourceGraphic" values="0 0 0 0 1.000000 0 0 0 0 1.000000 0 0 0 0 1.000000 0 0 0 1.000000 0"/>
        </filter>
    </defs>
    <g fill="none" fill-rule="evenodd">
        <g>
            <g>
                <path d="M0 0H180V80H0z" transform="translate(-1105 -5307) translate(1105 5307)"/>
                <g filter="url(#xqaz2rs5ba)" transform="translate(-1105 -5307) translate(1105 5307)">
                    <g fill-rule="nonzero">
                        <g>
                            <g transform="translate(22 26) translate(37.416 4.496)">
                                <use fill="#737373" xlink:href="#km65rjqv6b"/>
                                <use fill="#FFF" xlink:href="#km65rjqv6b"/>
                            </g>
                            <g transform="translate(22 26) translate(37.416 4.496)">
                                <use fill="#737373" xlink:href="#8xap3mqg2c"/>
                                <use fill="#FFF" xlink:href="#8xap3mqg2c"/>
                            </g>
                        </g>
                        <g transform="translate(22 26)">
                            <use fill="#F25022" xlink:href="#lppewlcc3d"/>
                            <use fill="#FFF" xlink:href="#lppewlcc3d"/>
                        </g>
                        <g transform="translate(22 26)">
                            <use fill="#7FBA00" xlink:href="#jrhxdyqjbe"/>
                            <use fill="#FFF" xlink:href="#jrhxdyqjbe"/>
                        </g>
                        <g transform="translate(22 26)">
                            <use fill="#00A4EF" xlink:href="#bzw5ka5tlf"/>
                            <use fill="#FFF" xlink:href="#bzw5ka5tlf"/>
                        </g>
                        <g transform="translate(22 26)">
                            <use fill="#FFB900" xlink:href="#us9e6fy6og"/>
                            <use fill="#FFF" xlink:href="#us9e6fy6og"/>
                        </g>
                    </g>
                </g>
            </g>
        </g>
    </g>
</svg>
