<svg xmlns="http://www.w3.org/2000/svg" width="180" height="80" viewBox="0 0 180 80">
    <defs>
        <filter id="knvssv7x9a">
            <feColorMatrix in="SourceGraphic" values="0 0 0 0 1.000000 0 0 0 0 1.000000 0 0 0 0 1.000000 0 0 0 1.000000 0"/>
        </filter>
    </defs>
    <g fill="none" fill-rule="evenodd">
        <g>
            <g>
                <path d="M0 0H180V80H0z" transform="translate(-535 -5307) translate(535 5307)"/>
                <g filter="url(#knvssv7x9a)" transform="translate(-535 -5307) translate(535 5307)">
                    <g>
                        <g fill="#417DC8" fill-rule="nonzero">
                            <g>
                                <path d="M23.644 17.242c.752-1.655-.645-2.971-1.225-4.381-.752-.94-1.312-1.918-2.279-2.764l-.15 7.145c.838.846 2.944 1.41 3.654 0zm1.44 7.389c.408-1.823-1.763-2.914-3.224-3.76l-1.72-.753-.15.132.064 7.521c1.87-.64 3.848-1.58 5.03-3.14zm-9.608 5.96c-.882.038-1.57-.3-2.365-.432v-.264l.151-16.47-.15-.132c-1.806 5.02-1.892 10.66-1.87 16.358-.839-.188-1.59-.602-2.365-.94-.128-3.479.172-7.107.58-10.53l-.86-1.316c-1.504 3.197-1.655 6.882-1.719 10.586-.816-.47-1.633-1.11-2.3-1.805l.366-4.137c.473-3.29 1.376-6.448 3.439-9.1.624.865 1.053 1.862 1.72 2.633 1.203-3.648 2.45-7.352 5.653-10.21v.244l-.28 25.515zm1.935.056l.064-25.758c.881.47 1.634 1.203 2.45 1.823 3.246 3.027 6.062 6.205 6.578 10.21-.022 1.222-.86 2.37-2.064 2.952 1.376.866 3.03 1.937 3.353 3.44.215 1.299-.215 2.54-1.29 3.46-2.6 2.05-5.674 3.403-9.091 3.873zm-1.226 2.332l-6.664-1.203-.278-1.185c-.194-1.015-1.72-.601-2.58-.883-1.225.018-.601-1.28-1.074-1.881-1.096-.188-2.257-.188-3.224-.62l.15-2.877c.3-8.893 4.729-17.448 14.1-21.886C26.803 7.859 31.21 17.486 30.243 27.771c-.967.226-1.956.32-2.945.432-.774.32-.494 1.241-.86 1.824l-2.794.377c-1.139-.057-.645 1.165-1.074 1.691-2.128.301-4.214.677-6.384.884zm8.534.94c.171-.639.171-1.391.709-1.824l3.224-.507c.194-.583.172-1.373.795-1.693l3.29-.488C33.724 17.467 29.275 5.735 16.614 0 7.244 3.836 1.29 12.297.495 21.002c-.366 2.5-.451 5.133-.495 7.765l.15.264 3.44.564c.323.451.172 1.071.43 1.56 1.052.245 2.278.226 3.138.752l.365 1.693 8.877 1.448 8.319-1.129M42.49 11.19l-2.827 11.968h2.88l.9-4.937m-.953-7.031l-2.827 11.968h2.88l.9-4.937m-.953-7.031l-2.827 11.968h2.88l.9-4.937m-.953-7.031l-2.827 11.968h2.88l.9-4.937m-.953-7.031l-2.827 11.968h2.88l.9-4.937c.265-1.42.513-2.965.707-4.172h.036c.194 1.296.476 2.734.777 4.208l1.007 4.901h2.862l.954-5.043c.265-1.403.46-2.681.636-4.013h.036c.176 1.332.441 2.735.689 4.155l.971 4.901h2.739L51.784 11.19h-2.915l-1.008 5.15c-.23 1.207-.423 2.326-.565 3.693h-.035c-.212-1.35-.407-2.486-.69-3.693l-1.13-5.15h-2.95m18.604 5.096l-.742 2.539c-.213.71-.425 1.598-.601 2.308h-.036c-.176-.71-.353-1.615-.547-2.308l-.707-2.54h2.633zm-3.022-2.024l-.848-3.072h-2.791l3.64 11.968h3.533L65.3 11.189h-2.898l-.919 3.072h-3.41m11.484 3.587h1.06c1.343 0 2.138.674 2.138 1.722 0 1.1-.742 1.652-1.979 1.67-.654 0-1.025-.054-1.22-.09v-3.302zm-2.668 5.15c.866.141 2.156.248 3.587.248 1.767 0 3.003-.267 3.851-.941.707-.568 1.096-1.403 1.096-2.504 0-1.527-1.078-2.575-2.103-2.948V16.8c.83-.337 1.29-1.137 1.59-2.238.371-1.349.742-2.912.972-3.373h-2.756c-.195.337-.477 1.314-.83 2.787-.318 1.492-.831 1.9-1.926 1.918h-.813V11.19h-2.668v11.808M77.366 11.19v11.968h3.145l2.473-4.386c.707-1.26 1.414-2.752 1.944-4.102h.052c-.176 1.58-.229 3.196-.229 4.99v3.498h2.474V11.189h-2.827l-2.545 4.617c-.706 1.278-1.484 2.823-2.067 4.226l-.053-.018c.07-1.58.106-3.267.106-5.22v-3.605h-2.473m19.275 5.06h-4.382v-2.84h4.894v-2.22h-7.597v11.968h7.35v-2.22h-4.647v-2.486h4.382V16.25m5.017 1.599h1.06c1.343 0 2.138.674 2.138 1.722 0 1.1-.742 1.652-1.978 1.67-.654 0-1.025-.054-1.22-.09v-3.302zm-2.668 5.15c.866.141 2.156.248 3.587.248 1.767 0 3.004-.267 3.852-.941.707-.568 1.095-1.403 1.095-2.504 0-1.527-1.078-2.575-2.102-2.948V16.8c.83-.337 1.29-1.137 1.59-2.238.37-1.349.742-2.912.972-3.373h-2.757c-.194.337-.477 1.314-.83 2.787-.318 1.492-.83 1.9-1.926 1.918h-.813V11.19H98.99v11.808m16.714-9.89c.265-.036.583-.036 1.042-.036 1.22 0 2.297.462 2.297 1.723 0 1.207-1.078 1.687-2.42 1.687h-.92v-3.374zm0 5.309h.883c1.414 0 2.174.586 2.174 1.474 0 .905-.69 1.385-1.909 1.385-.583 0-.918-.036-1.148-.071v-2.788zm-2.668 4.581c.707.142 2.138.249 3.48.249 1.644 0 2.651-.16 3.517-.675.83-.444 1.43-1.26 1.43-2.344 0-1.066-.618-2.06-1.96-2.557v-.036c1.36-.372 2.367-1.402 2.367-2.947 0-1.083-.495-1.936-1.237-2.54-.865-.692-2.314-1.083-4.682-1.083-1.325 0-2.314.09-2.915.178v11.755m13.339-5.15h1.06c1.343 0 2.138.675 2.138 1.723 0 1.1-.742 1.652-1.98 1.67-.653 0-1.024-.054-1.218-.09v-3.302zm-2.668 5.15c.865.142 2.155.249 3.587.249 1.766 0 3.003-.267 3.851-.941.707-.568 1.096-1.403 1.096-2.504 0-1.527-1.078-2.575-2.103-2.948V16.8c.83-.337 1.29-1.137 1.59-2.238.371-1.349.742-2.912.972-3.373h-2.756c-.195.337-.477 1.314-.83 2.787-.319 1.492-.831 1.9-1.926 1.918h-.813V11.19h-2.668v11.808m12.703-5.86c0-2.344 1.095-3.995 2.897-3.995 1.82 0 2.863 1.74 2.863 4.066 0 2.149-1.025 3.995-2.88 3.995-1.82 0-2.88-1.74-2.88-4.066zm8.604.16c0-3.924-2.367-6.303-5.848-6.303-3.534 0-5.6 2.68-5.6 6.09 0 3.587 2.279 6.268 5.794 6.268 3.658 0 5.654-2.752 5.654-6.055m1.855-3.32c.724-.373 1.838-.746 2.986-.746 1.237 0 1.89.515 1.89 1.296 0 .746-.565 1.172-1.996 1.687-1.979.693-3.269 1.794-3.269 3.534 0 2.042 1.696 3.604 4.506 3.604 1.342 0 2.332-.284 3.038-.603l-.6-2.184c-.477.23-1.325.568-2.491.568-1.167 0-1.732-.533-1.732-1.154 0-.764.671-1.101 2.208-1.687 2.103-.782 3.092-1.883 3.092-3.57 0-2.006-1.537-3.71-4.805-3.71-1.36 0-2.703.355-3.375.728l.548 2.237m9.17-1.35c0 .96.653 1.652 1.59 1.652.936 0 1.572-.675 1.572-1.652 0-.94-.636-1.633-1.59-1.633-.919 0-1.573.692-1.573 1.633" transform="translate(10 24) matrix(1 0 0 -1 .05 35.618) translate(.027 .184)"/>
                            </g>
                        </g>
                    </g>
                </g>
            </g>
        </g>
    </g>
</svg>
